<?xml version="1.0" encoding="UTF-8"?>
<!DOCTYPE svg PUBLIC "-//W3C//DTD SVG 1.1//EN" "http://www.w3.org/Graphics/SVG/1.1/DTD/svg11.dtd">
<svg xmlns="http://www.w3.org/2000/svg" version="1.1" width="512px" height="512px" style="shape-rendering:geometricPrecision; text-rendering:geometricPrecision; image-rendering:optimizeQuality; fill-rule:evenodd; clip-rule:evenodd" xmlns:xlink="http://www.w3.org/1999/xlink">
<g><path style="opacity:1" fill="#d3d7da" d="M 161.5,6.5 C 161.5,69.1667 161.5,131.833 161.5,194.5C 121.5,194.5 81.5,194.5 41.5,194.5C 41.5,205.167 41.5,215.833 41.5,226.5C 81.5,226.5 121.5,226.5 161.5,226.5C 161.5,240.5 161.5,254.5 161.5,268.5C 121.5,268.5 81.5,268.5 41.5,268.5C 41.5,278.833 41.5,289.167 41.5,299.5C 81.3299,300.499 121.33,300.832 161.5,300.5C 161.5,314.5 161.5,328.5 161.5,342.5C 121.5,342.5 81.5,342.5 41.5,342.5C 41.5,352.833 41.5,363.167 41.5,373.5C 81.5,373.5 121.5,373.5 161.5,373.5C 161.5,387.5 161.5,401.5 161.5,415.5C 109.833,415.5 58.1667,415.5 6.5,415.5C 6.5,279.167 6.5,142.833 6.5,6.5C 58.1667,6.5 109.833,6.5 161.5,6.5 Z"/></g>
<g><path style="opacity:1" fill="#e5e5e7" d="M 161.5,6.5 C 213.167,6.5 264.833,6.5 316.5,6.5C 316.5,17.8333 316.5,29.1667 316.5,40.5C 303.81,42.681 292.143,47.3477 281.5,54.5C 281.5,52.8333 281.5,51.1667 281.5,49.5C 247.337,48.5017 213.004,48.1683 178.5,48.5C 178.5,59.1667 178.5,69.8333 178.5,80.5C 205.167,80.5 231.833,80.5 258.5,80.5C 251.817,93.5496 247.151,107.216 244.5,121.5C 222.5,121.5 200.5,121.5 178.5,121.5C 178.5,132.167 178.5,142.833 178.5,153.5C 200.167,153.5 221.833,153.5 243.5,153.5C 243.5,154.5 243.5,155.5 243.5,156.5C 239.878,160.358 238.212,165.025 238.5,170.5C 238.947,178.955 240.947,186.955 244.5,194.5C 216.833,194.5 189.167,194.5 161.5,194.5C 161.5,131.833 161.5,69.1667 161.5,6.5 Z"/></g>
<g><path style="opacity:0.999" fill="#465c6a" d="M 337.5,38.5 C 337.5,68.5 337.5,98.5 337.5,128.5C 311.819,134.032 285.819,136.032 259.5,134.5C 259.286,152.506 258.786,170.506 258,188.5C 255.81,191.249 254.143,190.915 253,187.5C 248.511,177.536 245.344,167.202 243.5,156.5C 243.5,155.5 243.5,154.5 243.5,153.5C 243.5,152.833 243.167,152.5 242.5,152.5C 242.123,142.402 242.79,132.402 244.5,122.5C 244.5,122.167 244.5,121.833 244.5,121.5C 247.151,107.216 251.817,93.5496 258.5,80.5C 259.167,80.5 259.5,80.1667 259.5,79.5C 265.402,69.9294 272.736,61.596 281.5,54.5C 292.143,47.3477 303.81,42.681 316.5,40.5C 323.385,39.1163 330.385,38.4497 337.5,38.5 Z"/></g>
<g><path style="opacity:1" fill="#3b4c56" d="M 337.5,38.5 C 387.135,39.3078 416.969,63.9745 427,112.5C 429.58,126.478 430.08,140.478 428.5,154.5C 426.739,166.543 423.572,178.21 419,189.5C 417.333,190.833 415.667,190.833 414,189.5C 412.972,170.486 411.805,151.486 410.5,132.5C 395.307,131.315 384.807,123.648 379,109.5C 367.266,119.449 353.766,125.782 338.5,128.5C 338.167,128.5 337.833,128.5 337.5,128.5C 337.5,98.5 337.5,68.5 337.5,38.5 Z"/></g>
<g><path style="opacity:1" fill="#62c2a6" d="M 41.5,49.5 C 76.1667,49.5 110.833,49.5 145.5,49.5C 145.5,84.1667 145.5,118.833 145.5,153.5C 110.833,153.5 76.1667,153.5 41.5,153.5C 41.5,118.833 41.5,84.1667 41.5,49.5 Z"/></g>
<g><path style="opacity:1" fill="#1575ab" d="M 281.5,49.5 C 281.5,51.1667 281.5,52.8333 281.5,54.5C 272.736,61.596 265.402,69.9294 259.5,79.5C 232.833,79.5 206.167,79.5 179.5,79.5C 179.5,69.5 179.5,59.5 179.5,49.5C 213.5,49.5 247.5,49.5 281.5,49.5 Z"/></g>
<g><path style="opacity:1" fill="#fdfefe" d="M 86.5,59.5 C 92.8921,58.7906 98.8921,59.9573 104.5,63C 109.077,70.1252 110.91,77.9586 110,86.5C 107.067,91.379 103.9,96.0457 100.5,100.5C 100.76,102.187 101.427,103.687 102.5,105C 110.081,107.91 116.581,112.41 122,118.5C 122.973,120.392 123.64,122.392 124,124.5C 124.667,131.167 124.667,137.833 124,144.5C 103.242,145.493 82.409,145.827 61.5,145.5C 60.9544,136.348 61.7877,127.348 64,118.5C 65.8783,116.957 67.3783,115.124 68.5,113C 73.6158,109.695 78.7825,106.528 84,103.5C 84.6667,102.167 84.6667,100.833 84,99.5C 71.9839,89.7425 69.9839,78.0758 78,64.5C 80.5308,62.0967 83.3641,60.4301 86.5,59.5 Z"/></g>
<g><path style="opacity:1" fill="#6ca3c4" d="M 281.5,49.5 C 247.5,49.5 213.5,49.5 179.5,49.5C 179.5,59.5 179.5,69.5 179.5,79.5C 206.167,79.5 232.833,79.5 259.5,79.5C 259.5,80.1667 259.167,80.5 258.5,80.5C 231.833,80.5 205.167,80.5 178.5,80.5C 178.5,69.8333 178.5,59.1667 178.5,48.5C 213.004,48.1683 247.337,48.5017 281.5,49.5 Z"/></g>
<g><path style="opacity:0.996" fill="#d4b69e" d="M 428.5,154.5 C 433.358,154.854 436.192,157.521 437,162.5C 439.394,175.183 437.061,186.85 430,197.5C 427.162,200.192 423.996,200.858 420.5,199.5C 412.829,223.85 397.829,242.183 375.5,254.5C 363.18,260.388 350.18,263.388 336.5,263.5C 336.171,276.344 336.505,289.011 337.5,301.5C 337.167,302.167 336.833,302.833 336.5,303.5C 336.167,303.5 335.833,303.5 335.5,303.5C 323.814,292.826 311.481,282.826 298.5,273.5C 297.538,266.588 297.205,259.588 297.5,252.5C 309.787,259.905 323.121,263.238 337.5,262.5C 337.172,217.761 337.506,173.095 338.5,128.5C 353.766,125.782 367.266,119.449 379,109.5C 384.807,123.648 395.307,131.315 410.5,132.5C 411.805,151.486 412.972,170.486 414,189.5C 415.667,190.833 417.333,190.833 419,189.5C 423.572,178.21 426.739,166.543 428.5,154.5 Z"/></g>
<g><path style="opacity:1" fill="#1575ab" d="M 244.5,122.5 C 242.79,132.402 242.123,142.402 242.5,152.5C 221.5,152.5 200.5,152.5 179.5,152.5C 179.5,142.5 179.5,132.5 179.5,122.5C 201.167,122.5 222.833,122.5 244.5,122.5 Z"/></g>
<g><path style="opacity:1" fill="#c5a18a" d="M 337.5,128.5 C 337.833,128.5 338.167,128.5 338.5,128.5C 337.506,173.095 337.172,217.761 337.5,262.5C 323.121,263.238 309.787,259.905 297.5,252.5C 286.584,245.586 277.251,236.919 269.5,226.5C 263.915,218.07 259.415,209.07 256,199.5C 253.958,199.182 251.791,199.015 249.5,199C 247.963,197.293 246.296,195.793 244.5,194.5C 240.947,186.955 238.947,178.955 238.5,170.5C 238.212,165.025 239.878,160.358 243.5,156.5C 245.344,167.202 248.511,177.536 253,187.5C 254.143,190.915 255.81,191.249 258,188.5C 258.786,170.506 259.286,152.506 259.5,134.5C 285.819,136.032 311.819,134.032 337.5,128.5 Z"/></g>
<g><path style="opacity:1" fill="#6ca3c4" d="M 244.5,121.5 C 244.5,121.833 244.5,122.167 244.5,122.5C 222.833,122.5 201.167,122.5 179.5,122.5C 179.5,132.5 179.5,142.5 179.5,152.5C 200.5,152.5 221.5,152.5 242.5,152.5C 243.167,152.5 243.5,152.833 243.5,153.5C 221.833,153.5 200.167,153.5 178.5,153.5C 178.5,142.833 178.5,132.167 178.5,121.5C 200.5,121.5 222.5,121.5 244.5,121.5 Z"/></g>
<g><path style="opacity:1" fill="#1977ac" d="M 161.5,194.5 C 161.5,205.167 161.5,215.833 161.5,226.5C 121.5,226.5 81.5,226.5 41.5,226.5C 41.5,215.833 41.5,205.167 41.5,194.5C 81.5,194.5 121.5,194.5 161.5,194.5 Z"/></g>
<g><path style="opacity:1" fill="#2889b8" d="M 161.5,194.5 C 189.167,194.5 216.833,194.5 244.5,194.5C 246.296,195.793 247.963,197.293 249.5,199C 251.791,199.015 253.958,199.182 256,199.5C 259.415,209.07 263.915,218.07 269.5,226.5C 233.5,226.5 197.5,226.5 161.5,226.5C 161.5,215.833 161.5,205.167 161.5,194.5 Z"/></g>
<g><path style="opacity:1" fill="#e5e5e7" d="M 161.5,226.5 C 197.5,226.5 233.5,226.5 269.5,226.5C 277.251,236.919 286.584,245.586 297.5,252.5C 297.205,259.588 297.538,266.588 298.5,273.5C 296.983,273.511 295.816,274.177 295,275.5C 291.517,279.807 288.683,284.473 286.5,289.5C 284.716,289.893 283.05,290.559 281.5,291.5C 281.5,283.833 281.5,276.167 281.5,268.5C 241.5,268.5 201.5,268.5 161.5,268.5C 161.5,254.5 161.5,240.5 161.5,226.5 Z"/></g>
<g><path style="opacity:1" fill="#c6a28a" d="M 375.5,254.5 C 375.5,260.5 375.5,266.5 375.5,272.5C 362.833,282.167 350.167,291.833 337.5,301.5C 336.505,289.011 336.171,276.344 336.5,263.5C 350.18,263.388 363.18,260.388 375.5,254.5 Z"/></g>
<g><path style="opacity:1" fill="#1576ac" d="M 161.5,268.5 C 161.5,278.833 161.5,289.167 161.5,299.5C 121.5,299.5 81.5,299.5 41.5,299.5C 41.5,289.167 41.5,278.833 41.5,268.5C 81.5,268.5 121.5,268.5 161.5,268.5 Z"/></g>
<g><path style="opacity:1" fill="#1f87b7" d="M 161.5,268.5 C 201.5,268.5 241.5,268.5 281.5,268.5C 281.5,276.167 281.5,283.833 281.5,291.5C 277.795,294.526 273.795,297.192 269.5,299.5C 233.5,299.5 197.5,299.5 161.5,299.5C 161.5,289.167 161.5,278.833 161.5,268.5 Z"/></g>
<g><path style="opacity:0.992" fill="#fefdfd" d="M 375.5,272.5 C 379.853,277.527 383.853,282.86 387.5,288.5C 383.181,304.738 379.181,321.072 375.5,337.5C 369.853,332.857 364.186,328.19 358.5,323.5C 351.825,316.825 344.825,310.492 337.5,304.5C 337.5,303.833 337.167,303.5 336.5,303.5C 336.833,302.833 337.167,302.167 337.5,301.5C 350.167,291.833 362.833,282.167 375.5,272.5 Z"/></g>
<g><path style="opacity:1" fill="#fefefe" d="M 298.5,273.5 C 311.481,282.826 323.814,292.826 335.5,303.5C 334.833,303.5 334.5,303.833 334.5,304.5C 327.807,310.861 321.14,317.194 314.5,323.5C 308.537,328.128 302.87,333.128 297.5,338.5C 293.36,322.272 289.693,305.938 286.5,289.5C 288.683,284.473 291.517,279.807 295,275.5C 295.816,274.177 296.983,273.511 298.5,273.5 Z"/></g>
<g><path style="opacity:0.999" fill="#475c6a" d="M 387.5,288.5 C 394.36,293.095 401.36,297.428 408.5,301.5C 406.703,317.264 405.87,333.264 406,349.5C 399.643,354.691 393.143,359.691 386.5,364.5C 390.548,372.469 393.048,380.802 394,389.5C 375.074,427.02 355.908,464.353 336.5,501.5C 336.557,500.391 336.89,499.391 337.5,498.5C 343.294,473.529 348.961,448.529 354.5,423.5C 361.492,394.923 368.492,366.257 375.5,337.5C 379.181,321.072 383.181,304.738 387.5,288.5 Z"/></g>
<g><path style="opacity:1" fill="#3c4c56" d="M 286.5,289.5 C 289.693,305.938 293.36,322.272 297.5,338.5C 304.135,367.699 311.135,396.699 318.5,425.5C 323.675,449.201 329.008,472.867 334.5,496.5C 335.301,498.042 335.634,499.708 335.5,501.5C 316.441,464.383 297.608,427.05 279,389.5C 280.113,381.143 282.28,372.976 285.5,365C 285.241,363.739 284.574,362.739 283.5,362C 277.91,357.955 272.41,353.788 267,349.5C 266.5,333.503 266.333,317.503 266.5,301.5C 267.71,301.068 268.71,300.401 269.5,299.5C 273.795,297.192 277.795,294.526 281.5,291.5C 283.05,290.559 284.716,289.893 286.5,289.5 Z"/></g>
<g><path style="opacity:1" fill="#a9c6d6" d="M 41.5,299.5 C 81.5,299.5 121.5,299.5 161.5,299.5C 197.5,299.5 233.5,299.5 269.5,299.5C 268.71,300.401 267.71,301.068 266.5,301.5C 231.671,300.502 196.671,300.168 161.5,300.5C 121.33,300.832 81.3299,300.499 41.5,299.5 Z"/></g>
<g><path style="opacity:1" fill="#e5e5e7" d="M 161.5,300.5 C 196.671,300.168 231.671,300.502 266.5,301.5C 242.336,312.362 220.003,326.029 199.5,342.5C 186.833,342.5 174.167,342.5 161.5,342.5C 161.5,328.5 161.5,314.5 161.5,300.5 Z"/></g>
<g><path style="opacity:0.999" fill="#465c6a" d="M 266.5,301.5 C 266.333,317.503 266.5,333.503 267,349.5C 272.41,353.788 277.91,357.955 283.5,362C 284.574,362.739 285.241,363.739 285.5,365C 282.28,372.976 280.113,381.143 279,389.5C 297.608,427.05 316.441,464.383 335.5,501.5C 328.054,503.153 320.388,504.153 312.5,504.5C 264.833,504.5 217.167,504.5 169.5,504.5C 169.027,474.794 169.694,445.128 171.5,415.5C 173.175,401.438 175.842,387.438 179.5,373.5C 183.021,361.009 189.688,350.676 199.5,342.5C 220.003,326.029 242.336,312.362 266.5,301.5 Z"/></g>
<g><path style="opacity:0.992" fill="#3b4c56" d="M 408.5,301.5 C 435.642,313.144 459.808,329.144 481,349.5C 489.308,360.46 494.642,372.793 497,386.5C 503.337,425.594 505.504,464.928 503.5,504.5C 455.833,504.5 408.167,504.5 360.5,504.5C 352.281,504.154 344.281,503.154 336.5,501.5C 355.908,464.353 375.074,427.02 394,389.5C 393.048,380.802 390.548,372.469 386.5,364.5C 393.143,359.691 399.643,354.691 406,349.5C 405.87,333.264 406.703,317.264 408.5,301.5 Z"/></g>
<g><path style="opacity:1" fill="#d9533a" d="M 334.5,304.5 C 335.495,316.655 335.829,328.989 335.5,341.5C 331.833,341.5 328.167,341.5 324.5,341.5C 321.179,335.527 317.845,329.527 314.5,323.5C 321.14,317.194 327.807,310.861 334.5,304.5 Z"/></g>
<g><path style="opacity:1" fill="#e8674b" d="M 337.5,304.5 C 344.825,310.492 351.825,316.825 358.5,323.5C 355.167,329.5 351.833,335.5 348.5,341.5C 344.5,341.5 340.5,341.5 336.5,341.5C 336.171,328.989 336.505,316.655 337.5,304.5 Z"/></g>
<g><path style="opacity:1" fill="#d3d6d9" d="M 314.5,323.5 C 317.845,329.527 321.179,335.527 324.5,341.5C 323.263,369.578 321.263,397.578 318.5,425.5C 311.135,396.699 304.135,367.699 297.5,338.5C 302.87,333.128 308.537,328.128 314.5,323.5 Z"/></g>
<g><path style="opacity:1" fill="#d3d6d9" d="M 358.5,323.5 C 364.186,328.19 369.853,332.857 375.5,337.5C 368.492,366.257 361.492,394.923 354.5,423.5C 352.307,399.33 350.307,374.996 348.5,350.5C 348.5,347.5 348.5,344.5 348.5,341.5C 351.833,335.5 355.167,329.5 358.5,323.5 Z"/></g>
<g><path style="opacity:1" fill="#1576ac" d="M 161.5,342.5 C 161.5,352.833 161.5,363.167 161.5,373.5C 121.5,373.5 81.5,373.5 41.5,373.5C 41.5,363.167 41.5,352.833 41.5,342.5C 81.5,342.5 121.5,342.5 161.5,342.5 Z"/></g>
<g><path style="opacity:1" fill="#1e86b6" d="M 161.5,342.5 C 174.167,342.5 186.833,342.5 199.5,342.5C 189.688,350.676 183.021,361.009 179.5,373.5C 173.5,373.5 167.5,373.5 161.5,373.5C 161.5,363.167 161.5,352.833 161.5,342.5 Z"/></g>
<g><path style="opacity:1" fill="#e7674b" d="M 324.5,341.5 C 328.167,341.5 331.833,341.5 335.5,341.5C 335.832,393.336 335.499,445.003 334.5,496.5C 329.008,472.867 323.675,449.201 318.5,425.5C 321.263,397.578 323.263,369.578 324.5,341.5 Z"/></g>
<g><path style="opacity:1" fill="#dd7661" d="M 334.5,304.5 C 334.5,303.833 334.833,303.5 335.5,303.5C 335.833,303.5 336.167,303.5 336.5,303.5C 337.167,303.5 337.5,303.833 337.5,304.5C 336.505,316.655 336.171,328.989 336.5,341.5C 340.5,341.5 344.5,341.5 348.5,341.5C 348.5,344.5 348.5,347.5 348.5,350.5C 347.527,348.052 347.194,345.385 347.5,342.5C 343.833,342.5 340.167,342.5 336.5,342.5C 336.168,394.669 336.501,446.669 337.5,498.5C 336.89,499.391 336.557,500.391 336.5,501.5C 336.167,501.5 335.833,501.5 335.5,501.5C 335.634,499.708 335.301,498.042 334.5,496.5C 335.499,445.003 335.832,393.336 335.5,341.5C 335.829,328.989 335.495,316.655 334.5,304.5 Z"/></g>
<g><path style="opacity:1" fill="#d8523a" d="M 348.5,350.5 C 350.307,374.996 352.307,399.33 354.5,423.5C 348.961,448.529 343.294,473.529 337.5,498.5C 336.501,446.669 336.168,394.669 336.5,342.5C 340.167,342.5 343.833,342.5 347.5,342.5C 347.194,345.385 347.527,348.052 348.5,350.5 Z"/></g>
<g><path style="opacity:1" fill="#e4e4e6" d="M 161.5,373.5 C 167.5,373.5 173.5,373.5 179.5,373.5C 175.842,387.438 173.175,401.438 171.5,415.5C 168.167,415.5 164.833,415.5 161.5,415.5C 161.5,401.5 161.5,387.5 161.5,373.5 Z"/></g>
<g><path style="opacity:1" fill="#3b4c56" d="M 224.5,405.5 C 234.746,433.799 244.08,462.466 252.5,491.5C 247.833,491.5 243.167,491.5 238.5,491.5C 234.047,462.783 229.38,434.116 224.5,405.5 Z"/></g>
<g><path style="opacity:1" fill="#455b69" d="M 460.5,406.5 C 461.124,406.917 461.457,407.584 461.5,408.5C 456.077,436.038 451.41,463.704 447.5,491.5C 442.833,491.5 438.167,491.5 433.5,491.5C 442.291,463.127 451.291,434.794 460.5,406.5 Z"/></g>
<g><path style="opacity:0.463" fill="#8b635f" d="M 335.5,501.5 C 335.833,501.5 336.167,501.5 336.5,501.5C 344.281,503.154 352.281,504.154 360.5,504.5C 344.5,504.5 328.5,504.5 312.5,504.5C 320.388,504.153 328.054,503.153 335.5,501.5 Z"/></g>
</svg>
